<?xml version="1.0" encoding="UTF-8" standalone="no"?>
<svg
   xmlns:dc="http://purl.org/dc/elements/1.1/"
   xmlns:cc="http://creativecommons.org/ns#"
   xmlns:rdf="http://www.w3.org/1999/02/22-rdf-syntax-ns#"
   xmlns:svg="http://www.w3.org/2000/svg"
   xmlns="http://www.w3.org/2000/svg"
   xmlns:sodipodi="http://sodipodi.sourceforge.net/DTD/sodipodi-0.dtd"
   xmlns:inkscape="http://www.inkscape.org/namespaces/inkscape"
   version="1.1"
   id="svg52"
   width="1757.7465"
   height="1756.3944"
   viewBox="0 0 1757.7465 1756.3944"
   sodipodi:docname="CompeticoLogo2Message.svg"
   inkscape:version="1.0.2-2 (e86c870879, 2021-01-15)">
  <metadata
     id="metadata58">
    <rdf:RDF>
      <cc:Work
         rdf:about="">
        <dc:format>image/svg+xml</dc:format>
        <dc:type
           rdf:resource="http://purl.org/dc/dcmitype/StillImage" />
        <dc:title></dc:title>
      </cc:Work>
    </rdf:RDF>
  </metadata>
  <defs
     id="defs56" />
  <sodipodi:namedview
     pagecolor="#ffffff"
     bordercolor="#666666"
     borderopacity="1"
     objecttolerance="10"
     gridtolerance="10"
     guidetolerance="10"
     inkscape:pageopacity="0"
     inkscape:pageshadow="2"
     inkscape:window-width="2127"
     inkscape:window-height="1198"
     id="namedview54"
     showgrid="false"
     inkscape:zoom="0.30757875"
     inkscape:cx="1387.1594"
     inkscape:cy="1002.0631"
     inkscape:window-x="2916"
     inkscape:window-y="1117"
     inkscape:window-maximized="0"
     inkscape:current-layer="g60"
     inkscape:document-rotation="0" />
  <g
     inkscape:groupmode="layer"
     id="layer1"
     inkscape:label="Image 1"
     style="display:inline">
    <rect
       style="fill:#0000ff;fill-opacity:0;stroke-width:5"
       id="rect20"
       width="117.24622"
       height="255.18295"
       x="1360.9758"
       y="675.89001" />
    <rect
       style="fill:#007bff;fill-opacity:1;fill-rule:evenodd;stroke-width:10.3547"
       id="rect869"
       width="1757.5123"
       height="1757.0477"
       x="0.081184134"
       y="-0.84767026"
       ry="299.11041" />
  </g>
  <g
     inkscape:groupmode="layer"
     id="layer2"
     inkscape:label="Image 2">
    <rect
       style="fill:#ffffff;fill-opacity:1;fill-rule:evenodd"
       id="rect874"
       width="775.00708"
       height="350.24832"
       x="-1239.5669"
       y="-1650.3162"
       ry="8.9407997"
       rx="0"
       transform="scale(-1)" />
  </g>
  <g
     inkscape:groupmode="layer"
     id="layer3"
     inkscape:label="Image 3">
    <rect
       style="fill:#007bff;fill-rule:evenodd;fill-opacity:1"
       id="rect881"
       width="622.16943"
       height="35.493134"
       x="535.34961"
       y="1295.5963"
       rx="16.256001" />
  </g>
  <g
     inkscape:groupmode="layer"
     inkscape:label="Image"
     id="g60"
     style="display:inline">
    <g
       id="g64"
       transform="translate(-23.370829,-1.9917549)">
      <path
         style="fill:#caa131;stroke-width:1.35211"
         d="m 558.72041,1297.5881 1.57252,1.6005 c 0.57126,5.1814 18.85687,8.4352 40.31476,10.5792 42.31722,4.2282 308.15072,6.4025 424.10771,3.3184 88.8004,-2.3619 135.372,-1.6108 139.0503,-3.0093 1.7022,-0.6472 7.0803,-2.6728 10.7491,-5.2798 l 7.5697,-5.3788 34.1437,0.8325 c 34.3263,0.837 30.9245,3.1863 30.9245,5.8177 0,2.2274 -6.6373,3.717 -12.6626,6.3823 -46.5891,9.0692 -38.4624,18.4494 5.2379,0.104 6.4721,-2.8026 17.7368,-7.1607 17.7368,-9.2711 0,-2.7559 -8.1131,-3.9008 -41.4796,-5.8538 l -33.9007,1.9884 -7.8015,3.7386 -10.79,4.2908 -35.155,1.339 c -127.4857,4.856 -322.18163,6.1166 -454.98588,2.946 -81.66563,-1.9498 -104.76341,-4.555 -112.48151,-12.6872 l -3.63643,-3.8315 z m 174.12467,7.146 c -34.58028,-0.6413 -82.18933,-2.1403 -105.79788,-3.331 -45.27443,-2.2834 -56.45564,-3.9806 -56.45564,-8.5694 0,-3.3921 9.02519,-29.7635 11.45547,-33.4726 1.55143,-2.3678 3.52692,-3.1954 8.38034,-3.5109 l 6.35039,-0.4129 3.56179,-8.7887 3.5618,-8.7887 7.3451,-0.8804 c 13.49473,-1.6174 29.55934,-1.2665 32.74479,0.7154 7.41443,4.6129 24.77204,7.5266 57.07919,9.5816 39.26035,2.4971 151.47988,2.7553 280.56338,0.6455 86.21549,-1.4091 87.36569,-1.464 100.73239,-4.8107 8.9365,-2.2374 14.2204,-4.2874 15.5835,-6.0461 1.9782,-2.5522 2.7506,-2.5957 18.9296,-1.0648 9.2769,0.8778 17.625,2.1838 18.5511,2.9022 0.9262,0.7184 2.3937,3.6751 3.2611,6.5703 1.9152,6.3925 3.9383,8.206 11.1159,9.9644 l 5.5191,1.3522 7.0841,16.9014 c 3.8962,9.2957 7.1027,17.6123 7.1255,18.4812 0.023,0.869 -1.9795,2.8288 -4.4494,4.3553 -4.0544,2.5058 -7.9629,2.9104 -40.2253,4.1637 -96.9294,3.7657 -296.17541,5.8205 -392.01632,4.043 z m -33.33048,-64.3705 c -21.26064,-1.3957 -31.32114,-2.6613 -39.21127,-4.9328 -12.19296,-3.5102 -12.21798,-3.5723 -6.57571,-16.3291 l 3.51239,-7.9412 7.04198,0.7959 c 3.87307,0.4377 13.73492,1.5775 21.9152,2.5328 11.37296,1.3281 54.17179,1.7229 181.85916,1.6773 159.10815,-0.057 189.69235,-0.6658 207.88145,-4.1398 4.3457,-0.83 4.4361,-0.7382 9.2464,9.3909 2.6717,5.626 4.507,10.7966 4.0783,11.4902 -0.4287,0.6937 -6.1106,2.5441 -12.6266,4.1122 -11.0455,2.658 -17.7029,2.9429 -98.38237,4.2096 -119.10244,1.8699 -242.92265,1.4852 -278.73893,-0.866 z m 2.90794,-31.7007 c -21.45068,-1.3255 -29.07042,-2.3636 -29.07042,-3.9605 0,-0.6694 2.58592,-1.8261 5.74648,-2.5703 17.00587,-4.0043 43.47607,-14.0672 52.92072,-20.1183 27.93452,-17.8975 47.62081,-41.2561 56.06228,-66.5201 2.36056,-7.0648 6.16685,-22.5803 8.45841,-34.4789 3.63275,-18.8624 4.19342,-24.8383 4.37663,-46.6479 l 0.21013,-25.0141 -5.71854,-0.4144 c -4.8551,-0.3518 -6.4124,-1.2705 -10.31395,-6.0845 -5.9682,-7.36393 -6.82746,-10.52487 -4.4245,-16.27599 1.83824,-4.39951 2.49651,-4.78542 9.69788,-5.68517 4.24916,-0.53089 40.79057,-0.6915 81.20311,-0.35689 68.9097,0.57055 73.64789,0.76271 76.22089,3.09125 6.09216,5.51332 1.99576,19.3285 -7.36962,24.8542 l -4.61742,2.7243 0.57701,9.2145 c 0.31736,5.0679 0.8733,17.7327 1.23545,28.144 0.76045,21.8621 4.07126,40.7415 11.02583,62.8732 9.62807,30.6397 32.87637,57.3896 62.91609,72.3923 6.9665,3.4793 13.579,7.088 14.6945,8.0192 1.1155,0.9313 9.6558,3.2641 18.9783,5.1841 18.653,3.8415 24.2893,5.6064 24.2893,7.6055 0,2.1026 -6.527,2.7196 -43.9436,4.1542 -40.97276,1.5709 -297.2993,1.468 -323.15496,-0.1297 z m 64.96615,-240.54951 c -5.13515,-7.09388 -8.85347,-17.32771 -8.85347,-24.36713 v -4.95585 l 23.32394,-1.55586 c 53.1565,-3.54592 157.89171,-3.04 182.19719,0.8801 l 6.08451,0.98134 -0.32162,7.42343 c -0.23789,5.49108 -1.57636,9.78645 -5.14196,16.5013 -2.65121,4.99282 -5.54873,9.53808 -6.43896,10.10059 -0.89022,0.56251 -43.20456,1.03485 -94.03187,1.04966 l -92.41328,0.0269 z m -1.79558,-38.85011 c 0.91598,-3.50271 1.17403,-3.1853 -12.38517,-15.23439 -28.26945,-25.12103 -77.03757,-72.46437 -97.18704,-94.3477 -29.23006,-31.74529 -79.26821,-96.15521 -94.61802,-121.79386 -6.39112,-10.67504 -12.87062,-20.20132 -14.39888,-21.16953 -1.52825,-0.96819 -17.68568,-8.00555 -35.9054,-15.63856 L 478.69026,645.61982 424.56339,609.44244 371.15493,571.68451 345.68477,546.46199 C 311.3769,512.48768 276.94982,469.14467 251.63038,428.04935 236.34792,403.2448 231.9613,394.69013 217.80037,362.07496 205.21365,333.08547 199.35724,317.47221 191.93493,293.11721 177.59676,246.06904 178.10569,248.36319 178.80134,233.9155 c 0.56604,-11.75607 1.08671,-13.76213 6.14146,-23.66197 4.49631,-8.80617 7.09144,-12.05258 13.96066,-17.4643 4.64072,-3.65607 12.43945,-8.35509 17.33049,-10.4423 l 8.89281,-3.79489 103.77465,-0.0366 c 82.10384,-0.0289 103.77272,-0.38952 103.76542,-1.72672 -0.005,-0.92958 -2.17718,-3.16671 -4.82686,-4.97141 -4.4885,-3.05711 -8.48114,-9.02781 -10.57724,-15.81746 -0.65804,-2.13155 0.55014,-4.69156 4.67976,-9.91592 4.93692,-6.24566 7.5803,-7.99624 23.36145,-15.47114 26.80203,-12.69502 59.06748,-20.38482 125.50581,-29.91169 106.76817,-15.309943 195.91242,-19.759543 338.87999,-16.915068 105.41246,2.097281 170.97756,7.266316 275.43706,21.714968 38.8314,5.3711 39.51,5.52044 70.0476,15.41648 0,0 20.6216,6.12236 30.1897,11.14232 4.7454,2.4897 13.4159,8.61784 13.4159,8.61784 12.0665,9.22977 12.7693,10.04286 12.7693,14.77365 0,3.6982 -1.2838,6.65414 -4.9133,11.31272 -2.7023,3.46852 -5.4403,6.3064 -6.0845,6.3064 -0.6441,0 -1.1712,0.91268 -1.1712,2.02817 0,1.78364 11.4963,2.02817 95.3542,2.02817 h 95.3544 l 12.1671,4.97627 c 15.4479,6.31804 24.5134,13.85943 31.9936,26.61446 11.6966,19.94459 9.5517,39.69563 -10.8849,100.24026 -18.125,53.6961 -31.3188,81.18616 -62.9817,131.2264 -22.4685,35.50927 -61.3354,82.29549 -99.4816,119.75123 l -28.3943,27.88044 -44.6198,29.67605 c -45.1097,30.00193 -63.9433,40.40886 -92.6197,51.17905 -5.5774,2.09476 -10.9155,4.49711 -11.8622,5.33856 -0.9468,0.84143 -11.7116,17.00959 -23.9218,35.92922 -16.2544,25.18599 -29.3738,43.39809 -48.9829,67.99746 -25.5568,32.06059 -28.948,35.69143 -74.1063,79.34189 -26.0282,25.15909 -52.95213,50.40188 -59.83101,56.0951 -9.81701,8.12494 -12.50704,11.09517 -12.50704,13.80985 v 3.45854 l -11.83099,-0.84388 c -40.02355,-2.85483 -162.37168,-1.94978 -182.07215,1.34684 -4.84914,0.81144 -5.22397,0.65674 -4.5601,-1.88193 z M 630.25254,617.18792 c 11.75373,-4.13156 17.59882,-7.72923 21.06347,-12.96468 3.1088,-4.69771 3.39004,-6.14304 2.66496,-13.69535 -1.4698,-15.30916 -3.53051,-28.11172 -5.61599,-34.89028 -1.13031,-3.67392 -2.96779,-9.65166 -4.08328,-13.28386 -1.1155,-3.6322 -2.02817,-7.87071 -2.02817,-9.41892 0,-1.5482 -0.8423,-4.81301 -1.87177,-7.25514 -1.02947,-2.44213 -2.61442,-7.4825 -3.52209,-11.20081 -3.56621,-14.60899 -5.58067,-23.21672 -6.64511,-28.39436 -0.61153,-2.97465 -1.80365,-7.1213 -2.64914,-9.21479 -0.84548,-2.09347 -1.54383,-6.96108 -1.55187,-10.8169 -0.008,-3.8558 -0.92074,-9.99741 -2.02817,-13.64799 -2.56123,-8.44283 -2.55647,-13.53861 0.0146,-15.67244 1.36854,-1.13579 2.02817,-4.18871 2.02817,-9.38693 0,-7.41894 -0.22493,-7.90583 -6.08451,-13.17113 l -6.08451,-5.46742 v -30.52718 c 0,-17.28637 0.54355,-30.86312 1.25318,-31.30169 1.09463,-0.67652 7.552,1.19473 25.78908,7.47328 2.60281,0.89608 6.25352,2.40173 8.11267,3.34589 1.85916,0.94416 5.66869,2.14567 8.46565,2.67003 2.79694,0.52438 5.35967,1.53327 5.82626,2.15223 0.5512,0.7312 2.13266,1.19884 3.83368,1.19884 2.72568,0 7.95408,1.93405 14.32512,5.29903 2.96337,1.56517 3.24708,20.06222 0.73133,47.67899 -3.77521,41.44235 -2.85512,54.38942 5.02719,70.74029 4.73498,9.82208 6.17003,11.9269 12.84555,18.84077 8.4466,8.7482 14.76765,11.87855 36.83255,18.24047 5.57746,1.60815 12.23316,3.58675 14.79042,4.39691 2.55726,0.81016 8.33755,2.31809 12.84507,3.35097 7.66787,1.75706 12.7499,2.54263 37.60394,5.8128 5.39155,0.70939 15.5831,2.22621 22.64789,3.37072 17.92391,2.90369 71.80239,2.88802 88.56338,-0.0257 6.69296,-1.16352 16.7324,-2.6634 22.30986,-3.33308 5.57747,-0.66969 14.70423,-1.77406 20.28169,-2.45419 5.57747,-0.68014 9.0399,-2.78898 13.64238,-3.86388 2.5133,-0.58698 5.06758,-0.98549 7.61368,-1.40807 3.48743,-0.57882 6.75977,-0.13585 10.49246,-1.54366 3.73268,-1.4078 10.13317,-3.58905 14.22334,-4.8472 4.0901,-1.25814 8.6535,-2.81949 10.1409,-3.46966 1.4873,-0.65016 6.3697,-2.62965 10.8498,-4.39889 15.6734,-6.18957 31.2785,-18.91014 34.3011,-27.96064 3.1222,-9.34879 3.1853,-27.20452 0.2149,-60.78738 -1.6072,-18.17062 -3.1545,-33.41336 -3.4384,-33.87276 -0.2839,-0.45939 -1.2195,-7.36677 -2.079,-15.34972 -1.6377,-15.2115 -0.7806,-14.09967 3.3259,-19.08207 1.9263,-2.33713 5.093,-1.68188 8.4883,-3.24079 3.3954,-1.55891 8.6078,-2.74689 11.2106,-3.88174 2.6028,-1.13482 6.4549,-2.9016 8.5603,-3.92617 2.1053,-1.02456 4.6706,-1.86283 5.7006,-1.86283 1.03,0 3.8708,-0.8542 6.3129,-1.89822 2.4422,-1.04402 7.1783,-2.67116 10.5248,-3.61588 3.3465,-0.94472 7.6056,-2.4519 9.4648,-3.34929 1.8591,-0.8974 6.7267,-3.00429 10.8169,-4.68199 4.0901,-1.6777 9.2619,-3.82644 11.4929,-4.77496 2.231,-0.94852 6.7944,-2.48014 10.1409,-3.40361 3.3465,-0.92348 8.5183,-2.747 11.4929,-4.05231 2.9747,-1.30528 10.8845,-4.60272 17.5775,-7.32764 6.693,-2.72491 14.0863,-5.82225 16.4297,-6.88298 2.3434,-1.06074 5.0296,-1.92861 5.9694,-1.92861 1.9297,0 20.1017,-6.91679 30.3333,-11.54569 3.7183,-1.68221 10.8676,-4.48607 15.8873,-6.23082 5.0197,-1.74474 9.1268,-3.83853 9.1268,-4.65286 0,-1.78978 -9.6661,-3.13872 -14.5939,-4.36144 -3.2496,-0.8063 -6.5646,-1.3212 -9.8519,-1.95633 -3.4042,-0.65774 -6.7985,-1.37682 -10.2229,-1.9204 -2.8481,-0.45211 -5.7333,-0.64862 -8.5793,-1.11431 -3.8382,-0.62806 -7.6352,-1.48693 -11.4461,-2.26346 -17.8463,-3.6364 -36.9281,-7.58619 -53.4749,-11.21849 -4.8338,-1.0611 -10.6141,-2.20485 -12.8451,-2.54166 -2.231,-0.33681 -9.8366,-1.88552 -16.9014,-3.44159 -16.2129,-3.57098 -33.3035,-6.73713 -44.6197,-8.26613 -4.8338,-0.65312 -21.5662,-3.96201 -37.1831,-7.35308 -15.6169,-3.39107 -34.1747,-7.11622 -41.2395,-8.27811 -7.06479,-1.16188 -22.27606,-3.97451 -33.80282,-6.25029 -11.52676,-2.27578 -24.91267,-4.90364 -29.74648,-5.83969 -4.8338,-0.93604 -14.87324,-3.06128 -22.30986,-4.72273 -7.43662,-1.66145 -17.47605,-3.47621 -22.30986,-4.03282 -4.8338,-0.5566 -13.96056,-2.10093 -20.28169,-3.43181 -13.99066,-2.9457 -18.25231,-2.96014 -30.42253,-0.10317 -5.20564,1.22204 -11.62389,3.57569 -17.54232,4.94908 -4.32402,1.0034 -8.60971,1.46922 -13.09907,2.39798 -4.48936,0.92876 -9.20437,2.18604 -13.82593,3.19272 -8.79938,1.91671 -17.67014,3.49587 -26.4678,5.42046 -8.12021,1.7764 -16.17528,3.8406 -24.28723,5.65435 -19.58494,4.37899 -39.27105,8.29522 -58.8677,12.62148 -10.78075,2.38001 -25.60535,6.21145 -32.2983,7.33633 -7.86217,1.32139 -16.17014,3.08825 -24.27112,4.8271 -7.64788,1.64159 -14.09648,3.44969 -17.33372,4.65902 -2.80378,1.04741 -6.90843,1.14237 -8.87308,1.14237 -1.96466,0 -6.66785,0.85935 -10.45152,1.90966 -11.14189,3.09289 -19.81963,4.52824 -31.21743,7.14977 -19.12662,4.39918 -19.75249,4.12231 -42.68025,9.33861 -4.16031,0.94651 -8.99911,1.35456 -10.61257,1.88365 -1.53864,0.50455 -4.98095,0.96549 -7.3479,1.97958 -4.75355,2.0366 -17.90871,4.81438 -28.93674,5.76894 -0.99587,0.0862 -0.92423,1.17951 -1.66962,1.27585 -3.64645,0.47126 -5.42897,0.14764 -5.42897,1.91767 0.59175,3.32841 4.26894,2.72994 6.44088,3.77345 8.12054,0.96708 22.98912,8.84133 30.74221,11.55051 7.99111,2.79235 14.06945,5.24008 40.89238,14.84548 7.06366,2.52952 9.56449,3.08081 14.15198,4.63176 8.66994,2.93116 12.70033,3.04425 26.18695,9.02529 3.55228,1.57538 7.20241,2.57887 8.48393,2.60252 1.28152,0.0237 3.11515,2.13854 4.85305,2.84097 1.66674,0.67367 4.08112,1.27427 5.2404,1.27464 1.85581,6e-4 1.5997,4.98606 1.59918,36.46769 l -5.6e-4,35.75579 -4.54683,4.69115 c -6.92452,7.14429 -7.28237,14.31277 -1.16799,23.39676 3.3997,5.05086 4.96552,9.16333 5.66296,14.87324 0.53019,4.34065 1.81481,11.5428 2.85471,16.00477 2.17657,9.33922 2.45877,34.81628 0.58409,52.7324 -3.25486,31.10627 -5.45726,49.68039 -5.99369,50.54838 -0.32233,0.52152 -0.74586,8.66723 -0.94118,18.10154 -0.33859,16.35473 -0.20823,17.30968 2.8001,20.51189 6.46464,6.88131 21.47643,9.37681 32.69165,5.43455 z M 511.0986,603.67758 c 0,-0.39425 -1.53285,-4.35868 -3.40634,-8.80988 -26.48487,-62.92527 -46.45387,-144.70496 -60.23899,-246.69868 -4.36591,-32.30269 -9.36876,-86.15106 -9.36876,-100.8412 0,-5.04896 -0.59339,-10.74068 -1.31865,-12.64824 l -1.31864,-3.46831 h -34.29026 c -18.85964,0 -62.7417,0.40432 -97.5157,0.89849 -61.42059,0.87285 -63.3469,0.98035 -67.48032,3.76587 -2.3402,1.57705 -4.85522,2.89258 -4.71104,5.23593 1.63744,26.61401 16.14396,58.00518 25.56628,80.86559 11.21156,27.20145 44.87327,89.95565 55.4089,103.29664 4.09608,5.18674 12.6983,16.4306 19.11605,24.98637 41.57714,55.42814 103.75191,112.62276 154.54338,142.1646 9.66761,5.62298 18.49014,10.56841 19.60564,10.98985 2.6993,1.01984 5.40845,1.15157 5.40845,0.26297 z m 724.0563,-11.20514 c 29.1803,-17.55724 76.5739,-57.32323 115.7737,-97.14084 10.1318,-10.29154 27.5153,-30.27244 38.6299,-44.40201 18.5983,-23.6433 21.9774,-28.86814 42.4104,-65.57747 29.092,-52.26586 37.4444,-72.94517 55.0343,-136.25637 2.638,-9.49489 2.6482,-9.93762 0.2941,-12.84507 l -2.4378,-3.01124 h -95.7819 -95.7818 l -0.9526,4.7324 c -0.524,2.60281 -2.5657,23.59436 -4.5371,46.64788 -9.3821,109.71186 -26.5332,197.913 -53.3737,274.47888 -15.2199,43.41656 -14.1633,39.88785 -11.9422,39.88474 1.0163,-10e-4 6.7154,-2.93132 12.6647,-6.5109 z m 63.5493,-460.68504 c -8.9742,-7.03699 -11.0913,-7.94829 -40.8455,-17.5815 C 1226.819,104.15652 1226.062,103.98862 1188.2249,98.761347 1083.3774,84.276467 1018.1848,79.154441 911.59879,77.027501 765.28075,74.107703 675.61542,78.524251 568.04146,93.949731 500.8117,103.59009 470.79421,110.76856 442.48193,123.9764 c -10.5955,4.94286 -20.27291,10.10124 -21.50533,11.46307 -1.23244,1.3618 -2.79978,2.47603 -3.48301,2.47603 -0.72868,0 -1.06127,-11.44662 -0.80452,-27.68917 0,0 -0.49198,-19.184071 3.09586,-27.689156 1.96517,-4.658514 8.03713,-10.755635 8.03713,-10.755635 0,0 11.04386,-8.015762 15.29318,-10.755635 6.10099,-3.933791 15.80541,-7.614253 15.80541,-7.614253 31.96977,-11.930719 74.04921,-20.60457 141.05349,-29.075415 l 53.77235,-6.798032 106.61589,-4.727 c 0,0 71.04266,-4.5789549 106.6159,-4.726999 31.18551,-0.1297838 93.49678,3.365879 93.49678,3.365879 88.30784,3.179078 96.16074,3.66863 141.49674,8.820998 47.2575,5.370732 48.9756,5.674868 111.0677,19.661018 61.2778,13.802731 63.4267,14.395091 75.7183,20.872103 7.3721,3.884676 15.1858,9.253506 18.7264,12.866935 5.6043,5.71961 6.0555,6.695299 5.8153,12.574659 -0.1432,3.505658 -0.6569,16.869693 -1.1416,29.697863 -0.6114,16.18264 -1.357,23.31498 -2.4351,23.29468 -0.8546,-0.0161 -5.8129,-3.36902 -11.0186,-7.45094 z"
         id="path72"
         sodipodi:nodetypes="ccsssscssccsscccsssccssssscccsssssssssscsssssssscsssssssssssssssscssssssscssssssssssscsscsssscscssssccccsssssssscssssssssssssssssscssssscsssssssscssccssssssssssssssscsssssssssssssssssssaassssssssasssssssssssssssssaaaaassssssssssssazaaaasssssssssssccsssssasscssssssssssssssscsssssssssssssssscccssscssssssssssscsssccasssssssss" />
      <path
         style="fill:#d11519;stroke-width:1.35211"
         d="m 844.36206,1637.0955 c -0.35348,-0.9434 -0.79504,-29.3997 -0.98124,-63.2363 l -0.33856,-61.5211 -16.90141,-0.9496 c -9.29577,-0.5224 -35.45915,-1.6104 -58.14084,-2.418 -107.8914,-3.8415 -188.13615,-9.2352 -223.77465,-15.0412 -26.72689,-4.3542 -35.3556,-7.4838 -48.96718,-17.7607 l -7.1455,-5.3949 v -20.1192 c 0,-12.1866 0.52051,-20.1193 1.32014,-20.1193 0.72607,0 5.39814,2.735 10.38238,6.0778 23.242,15.5875 43.97245,18.6609 178.26932,26.4293 82.63788,4.7803 161.30689,7.2033 163.94366,5.0495 1.30797,-1.0684 1.69014,-15.5599 1.69014,-64.0883 v -62.7077 h 32.4507 32.45071 v 63.4046 c 0,53.3302 0.30309,63.5209 1.90753,64.1367 2.36529,0.9076 94.61064,-1.261 131.27554,-3.0864 77.2142,-3.8437 143.4046,-9.1575 168.2112,-13.5038 20.7221,-3.6307 30.9655,-7.2438 42.5054,-14.9929 l 9.6778,-6.4985 0.3744,20.3808 0.3743,20.3808 -4.4307,3.8423 c -6.5414,5.6729 -21.7175,12.6017 -36.2435,16.5474 -22.0634,5.9931 -65.0293,10.3887 -140.5815,14.3819 -68.6284,3.6275 -82.09254,4.1587 -124.71814,4.9214 -33.07949,0.592 -45.99126,1.2644 -46.97199,2.446 -0.84635,1.0199 -1.4842,24.6067 -1.70444,63.0291 l -0.35196,61.3993 -31.46946,0.3631 c -24.44752,0.282 -31.61287,-0.02 -32.11215,-1.3521 z"
         id="path70" />
      <path
         style="fill:#755600;stroke-width:5;stroke-miterlimit:4;stroke-dasharray:none"
         d="m 687.50763,1738.0545 c -101.81014,-4.482 -103.4347,-4.598 -168.33803,-12.0217 -73.2043,-8.373 -94.49088,-12.4578 -114.21316,-21.9162 l -10.81559,-5.187 0.084,-33.1268 c 0.0462,-18.2197 0.4901,-34.7041 0.9864,-36.6321 1.15736,-4.4959 12.57059,-9.8742 36.78872,-17.3359 9.6676,-2.9786 23.92494,-7.567 31.68297,-10.1962 l 14.10553,-4.7805 6.72691,7.5475 c 3.69981,4.1511 8.91289,8.9241 11.58463,10.6066 8.10501,5.1042 28.58739,12.5179 39.33658,14.2379 5.57746,0.8924 15.6169,2.7453 22.30986,4.1176 12.62669,2.5887 23.76185,3.9269 61.52113,7.3935 59.43197,5.4562 95.64914,7.5479 177.51307,10.2522 65.59468,2.1671 209.95925,-0.3964 274.09255,-4.867 58.7427,-4.0948 144.7173,-15.0151 160.9014,-20.4373 13.4503,-4.5064 25.7516,-11.3303 35.1319,-19.4891 4.6516,-4.0458 8.9581,-6.6707 10.9444,-6.6707 1.8012,0 19.8495,5.5248 40.1074,12.2772 29.5585,9.8526 37.3691,12.9595 39.5498,15.7317 2.5586,3.2528 2.7172,5.4471 2.7172,37.5854 0,25.7124 -0.4169,34.4504 -1.6901,35.4264 -0.9296,0.7126 -8.0789,3.8557 -15.8874,6.985 -12.3917,4.9659 -19.6135,6.6343 -56.7887,13.1193 -37.5649,6.553 -49.214,7.9723 -98.7042,12.0262 -48.3975,3.9644 -68.1967,4.8794 -144,6.6553 -48.33802,1.1323 -125.00281,2.3211 -170.36619,2.6416 -77.49514,0.5476 -88.69065,0.3093 -185.28112,-3.9429 z M 788.4849,1341.4268 c -1.85916,-0.2203 -21.53278,-2.0464 -43.47081,-2.8162 -67.15669,-2.3564 -109.76802,-4.7768 -156.16901,-8.8706 -37.4464,-3.3038 -28.87674,-2.4098 -43.10725,-4.9981 -4.44206,-0.8079 -7.81878,-1.9508 -13.25054,-3.5905 -5.50982,-1.6632 -13.23745,-3.8654 -16.94528,-5.2743 -7.4593,-2.8343 -22.02088,-12.0247 -22.02088,-13.8983 0,-1.8828 4.19829,-2.445 34.89877,-4.6737 l 28.81428,-2.0918 3.63643,3.8315 c 7.7181,8.1322 30.81588,10.7374 112.48151,12.6872 132.80425,3.1706 327.50018,1.91 454.98588,-2.946 l 35.155,-1.339 c 0,0 7.4954,-2.8098 10.6463,-5.1881 2.4789,-1.8712 6.221,-6.9363 6.221,-6.9363 l 35.6249,2.1066 c 33.3653,1.973 41.4796,3.0979 41.4796,5.8538 0,2.1104 -8.391,8.4801 -14.8631,11.2827 -3.352,1.4515 -11.8491,4.6121 -19.4412,6.3406 -7.5921,1.7286 -14.8281,3.2827 -15.8598,3.5721 -0.9953,0.2792 -4.4029,1.1844 -7.83,1.4244 -3.4272,0.2399 -12.9242,1.0432 -21.1045,1.7851 -53.5174,4.8537 -84.3146,7.877 -170.839,12.091 -6.4816,0.3157 -22.88315,0.6392 -43.9719,0.9314 -21.08876,0.2921 -46.86473,0.5527 -72.0952,0.7425 -25.23048,0.1898 -49.91545,0.3088 -68.82222,0.3176 -18.90678,0.01 -32.03534,-0.093 -34.15298,-0.3436 z M 606.27355,617.08304 c -3.0566,-1.0841 -6.97729,-3.48245 -8.71266,-5.32967 -3.00833,-3.20221 -3.13869,-4.15716 -2.8001,-20.51188 0.19532,-9.43432 0.61885,-17.58003 0.94118,-18.10155 0.53643,-0.86799 2.73883,-19.44211 5.99369,-50.54838 1.87468,-17.91612 1.59248,-43.39318 -0.58409,-52.7324 -1.0399,-4.46197 -2.32452,-11.66412 -2.85471,-16.00476 -0.69744,-5.70992 -2.26326,-9.82239 -5.66296,-14.87324 -6.11438,-9.084 -5.75653,-16.25248 1.16799,-23.39677 l 4.54683,-4.69114 5.6e-4,-35.7558 c 5.2e-4,-31.48163 -0.4669,-34.96563 -2.10718,-35.75649 -1.04424,-0.50348 -3.15205,-1.33082 -4.7324,-1.98584 -1.64857,-0.68329 -3.28074,-1.40954 -4.95465,-2.02817 -2.89437,-1.06968 -5.87214,-1.89982 -8.78873,-2.90732 -8.65045,-2.9882 -17.19968,-6.26268 -25.83135,-9.30469 -4.68909,-1.65255 -9.41416,-3.20195 -14.10118,-4.86036 -13.67071,-4.83712 -27.28941,-9.821 -40.89238,-14.84548 -10.26873,-3.79293 -20.3252,-8.18615 -30.74221,-11.55051 -1.44446,-0.46652 -3.31959,-0.73716 -4.39437,-1.19436 -1.03576,-0.4406 -2.04651,-1.16058 -2.04651,-2.57909 0,-2.13185 1.34344,-1.9424 7.09859,-3.19352 122.95661,-26.72975 256.14405,-54.87309 368.11268,-80.2311 12.17664,-2.82954 16.43187,-2.84257 30.42253,0.10317 126.04692,11.52675 272.35148,54.22232 374.88638,72.37945 5.5482,0.98249 14.5221,2.82311 14.5221,4.61289 0,0.81433 -4.1071,2.90812 -9.1268,4.65286 -60.988,26.29274 -150.0156,57.84837 -181.61,70.37874 -12.0254,4.83697 -13.9135,4.03657 -12.119,21.30679 0.8595,7.98296 1.7951,14.89033 2.079,15.34973 0.2839,0.45939 1.8312,15.70213 3.4384,33.87276 2.9704,33.58285 2.9073,51.43858 -0.2149,60.78737 -3.0226,9.05051 -18.6277,21.77107 -34.3011,27.96064 -4.4801,1.76924 -9.3625,3.74873 -10.8498,4.3989 -1.4874,0.65016 -6.0508,2.21151 -10.1409,3.46965 -4.09014,1.25816 -10.49063,3.4394 -14.22331,4.8472 -3.73269,1.40781 -6.91065,1.77685 -10.39086,2.55966 -2.45945,0.55321 -4.93868,1.01455 -7.41048,1.50968 -4.64604,0.93065 -9.26744,2.00344 -13.94718,2.74627 -6.72568,1.06758 -14.70422,1.78451 -20.28169,2.4542 -5.57746,0.66967 -15.6169,2.16956 -22.30986,3.33308 -16.76099,2.91377 -70.63947,2.92944 -88.56338,0.0257 -7.06479,-1.14451 -17.25634,-2.66134 -22.64789,-3.37073 -24.85404,-3.27016 -29.93607,-4.05574 -37.60394,-5.8128 -4.50752,-1.03288 -10.28781,-2.54081 -12.84507,-3.35097 -2.55726,-0.81015 -9.21296,-2.78875 -14.79042,-4.3969 -22.0649,-6.36192 -28.38595,-9.49228 -36.83255,-18.24048 -6.67552,-6.91386 -8.11057,-9.01868 -12.84555,-18.84077 -7.88231,-16.35087 -8.8024,-29.29794 -5.02719,-70.74029 2.51575,-27.61674 2.23204,-46.11379 -0.73133,-47.67896 -6.37104,-3.36498 -11.63536,-3.86219 -14.21736,-4.76021 -1.60662,-0.55879 -3.35431,-1.18606 -4.22881,-1.37845 -0.75702,-0.16654 -3.42445,-1.34048 -5.79034,-2.15223 -2.69166,-0.92352 -6.35504,-2.08508 -8.2142,-3.02924 -1.85915,-0.94416 -5.50986,-2.44981 -8.11267,-3.34589 -18.23708,-6.27855 -24.69445,-8.1498 -25.78908,-7.47328 -0.70963,0.43857 -1.25318,14.01532 -1.25318,31.30169 v 30.52718 l 6.08451,5.46742 c 5.85958,5.2653 6.08451,5.75219 6.08451,13.17113 0,5.19822 -0.65963,8.25114 -2.02817,9.38693 -2.5711,2.13383 -2.57586,7.22961 -0.0146,15.67244 1.10744,3.65058 2.02012,9.79219 2.02817,13.64799 0.008,3.85582 0.7064,8.72343 1.55188,10.8169 0.84549,2.09349 2.0376,6.24014 2.64914,9.21479 1.06444,5.17764 3.07889,13.78537 6.6451,28.39436 0.90768,3.71831 2.49262,8.75868 3.5221,11.20081 1.02947,2.44213 1.87177,5.70694 1.87177,7.25514 0,1.54821 0.91267,5.78672 2.02816,9.41892 1.1155,3.6322 2.95298,9.60994 4.08329,13.28386 2.08547,6.77856 4.14619,19.58112 5.61599,34.89028 0.72508,7.55231 0.44384,8.99764 -2.66496,13.69535 -2.02389,3.05828 -5.9131,6.42839 -9.3113,8.06848 -15.03941,7.25852 -25.00659,8.59505 -35.73116,4.79132 z"
         id="path68"
         sodipodi:nodetypes="ssscsssscssssssssssssssssssssssssssssscssscacssssssssssssssssssssscssaaaaaaasssccsscccsssssssaaasssssssssssssssssscsssssssssssssssss" />
      <path
         style="fill:#00257d;stroke-width:1.35211"
         d="m 933.29579,1639.2172 c -1.31096,-0.5289 -1.69015,-12.3359 -1.69015,-52.6256 0,-40.6454 0.36763,-51.9471 1.69015,-51.959 0.92957,-0.014 7.47042,2.0982 14.53521,4.6813 12.01904,4.3947 28.42771,10.1809 50.70422,17.8801 5.20568,1.7991 12.50708,4.517 16.22538,6.0399 3.7183,1.5227 8.5859,3.2907 10.8169,3.9288 2.231,0.6381 25.0479,8.262 50.7042,16.9421 25.6563,8.6802 48.4732,16.2628 50.7042,16.8505 2.231,0.5877 15.0085,4.3951 28.3944,8.4611 13.3859,4.066 28.7453,8.4413 34.132,9.7231 5.3866,1.2818 9.5103,2.7895 9.1636,3.3503 -0.7009,1.1342 -2.7283,1.4556 -38.9982,6.1831 -37.0338,4.827 -86.6171,7.7968 -167.90304,10.0565 -51.23052,1.424 -56.05888,1.4643 -58.47887,0.4878 z m -183.5493,-2.6088 c -47.68968,-2.1898 -107.67892,-5.5597 -130.24324,-7.3162 -43.25222,-3.3671 -52.8494,-4.2276 -60.24568,-5.4017 -7.89005,-1.2525 -10.02476,-2.0811 -8.72117,-3.3846 0.37248,-0.3726 11.88234,-3.9607 25.57747,-7.9737 28.1336,-8.2439 55.26659,-16.6658 83.04107,-25.7753 36.07047,-11.8305 87.95037,-29.1072 101.40845,-33.7707 35.17156,-12.1873 41.09567,-14.2572 48.51864,-16.9525 4.3754,-1.5887 8.79391,-2.5667 9.81892,-2.1734 1.54719,0.5937 1.80352,9.5037 1.50953,52.4697 l -0.35413,51.7545 -15.5493,0.1623 c -8.55211,0.089 -33.19436,-0.6479 -54.76056,-1.6384 z m -244.7324,-53.2518 c -2.97465,-0.5397 -8.30693,-2.2708 -11.84951,-3.8471 l -6.44106,-2.8659 0.35655,-44.2095 c 0.24407,-30.2627 0.81901,-44.3636 1.82244,-44.6977 0.80623,-0.2686 4.58563,1.9957 8.39864,5.0317 3.81303,3.0359 10.56921,6.9975 15.01375,8.8035 19.13455,7.775 63.56209,12.9655 155.62877,18.1821 41.9733,2.3784 51.38028,3.107 51.38028,3.98 0,0.4712 -1.97746,1.6251 -4.39436,2.5645 -12.20708,4.7443 -73.48227,24.5392 -97.69015,31.5587 -5.20563,1.5094 -10.98591,3.2907 -12.84507,3.9582 -19.68105,7.0672 -67.99816,19.6269 -82.4434,21.4305 -6.30162,0.7867 -11.47345,1.3544 -11.49296,1.2612 -0.0195,-0.093 -2.46927,-0.6106 -5.44392,-1.1502 z m 705.67911,-2.108 c -16.562,-2.6799 -58.4278,-14.9673 -118.8622,-34.8853 -50.833,-16.7536 -58.8169,-19.6258 -58.8169,-21.1587 0,-0.6087 7.1493,-1.4682 15.8873,-1.9098 144.6038,-7.3087 181.6194,-12.8144 206.5563,-30.7227 4.0602,-2.9159 6.5637,-3.9366 7.4589,-3.0415 0.8542,0.8543 1.2166,17.1476 0.9901,44.5083 l -0.3574,43.1608 -8.7887,2.3989 c -12.3799,3.3794 -29.4345,4.0178 -44.0674,1.65 z M 1031.662,1449.5559 c 0,-0.6934 1.369,-1.6841 3.0422,-2.2015 2.5063,-0.7747 38.2158,-16.4321 59.831,-26.2337 17.5073,-7.9387 31.6432,-14.3962 44.6197,-20.3825 2.9747,-1.3723 19.7963,-9.4555 37.3815,-17.9626 49.0717,-23.7393 69.3307,-36.5411 79.8269,-50.4434 3.0039,-3.9785 6.0017,-6.8998 6.6618,-6.4918 0.6602,0.4079 1.2003,20.1526 1.2003,43.8769 0,49.2375 1.2431,44.2259 -13.3133,53.6723 -21.319,13.8349 -56.9109,18.7538 -188.8276,26.0963 -28.8521,1.6059 -30.4225,1.6096 -30.4225,0.07 z m -339.49297,-0.6115 c -0.30987,-0.2863 -13.9493,-1.2068 -30.30987,-2.0456 -47.38608,-2.4298 -103.69234,-7.2196 -121.90932,-10.3706 -15.76217,-2.7265 -29.34555,-7.9697 -41.02026,-15.8342 -5.57746,-3.7571 -10.58786,-7.4911 -11.13423,-8.2978 -1.71235,-2.5281 -1.24594,-87.0357 0.48628,-88.1062 0.89145,-0.551 6.34834,4.0639 13.1831,11.1488 13.19037,13.6731 30.18018,25.5653 54.25359,37.9755 17.11332,8.8221 65.07964,31.4308 66.68323,31.4308 0.84905,0 49.28593,21.3163 71.90832,31.6458 3.71831,1.6978 10.8676,4.8384 15.88732,6.9792 5.01972,2.1407 9.12676,4.3653 9.12676,4.9434 0,1.0351 -26.05781,1.5444 -27.15492,0.5309 z m 112.33802,-7.591 c -5.57746,-2.1717 -11.9662,-4.8457 -14.19718,-5.9424 -2.23099,-1.0967 -11.66197,-5.1521 -20.95775,-9.012 -33.80328,-14.036 -77.18523,-32.4627 -85.85915,-36.4692 -2.97465,-1.374 -22.7493,-10.2139 -43.94367,-19.6442 -42.46108,-18.8928 -83.37262,-38.3191 -88.17405,-41.8682 -2.97961,-2.2025 -2.74494,-2.2554 6.37124,-1.4364 73.88844,6.6383 121.6039,8.8603 182.43361,10.9789 18.86777,0.6571 43.35944,2.2805 56.56818,2.8039 l 24.01586,0.9516 -0.35389,51.5086 c -0.40966,59.6237 1.18936,54.7843 -15.9032,48.1294 z m 127.09859,-47.7945 v -52.3526 l 22.64789,-0.4273 c 93.26697,-1.7597 109.34507,-4.6881 163.94367,-8.299 24.1402,-1.5965 48.1749,-4.7063 72.338,-5.9087 3.9471,-0.1964 11.2837,-0.7195 11.8541,-0.2127 0.5705,0.5068 -7.9478,5.253 -18.9295,10.547 -22.3536,10.776 -46.2659,21.9677 -46.9369,21.9677 -0.2427,0 -6.4427,2.7905 -13.7778,6.2012 -7.3352,3.4107 -15.7704,7.308 -18.7451,8.6606 -2.9746,1.3528 -9.6676,4.4155 -14.8732,6.8063 -5.2057,2.3907 -23.4592,10.4301 -40.5634,17.8653 -17.1042,7.4353 -37.7916,16.4275 -45.9718,19.9828 -8.18032,3.5554 -20.04511,8.4332 -26.36624,10.8397 -6.32112,2.4065 -12.1014,4.8406 -12.84507,5.409 -2.44678,1.8703 -26.58117,10.7703 -29.2061,10.7703 -2.47866,0 -2.56855,-1.8144 -2.56855,-51.8496 z"
         id="path66"
         sodipodi:nodetypes="sscsssssssssssscssssscssscccsscsssssssscsssssscssscsssssssssssssscsssssssssssssssssssscssscsaassssssssssss" />
    </g>
    <path
       style="fill:#000000;fill-opacity:0;stroke-width:0.287368"
       d="m 1344.2582,1645.3965 c -0.086,-11.7949 -0.2543,-19.3219 -0.4595,-20.5595 -0.7638,-4.6077 -2.1097,-5.6985 -11.7094,-9.4898 -11.9637,-4.725 -50.7204,-17.8505 -69.4349,-23.5151 l -3.0889,-0.9349 -1.2216,0.5937 c -1.4038,0.6822 -6.1931,4.1792 -9.5554,6.9768 -10.4376,8.685 -22.4441,15.517 -34.1022,19.4051 -5.216,1.7396 -16.0513,3.6535 -43.0561,7.6054 -72.0746,10.5473 -117.95,14.5448 -193.1115,16.8271 -75.3765,2.289 -160.2975,2.6218 -218.5435,0.8567 -51.55919,-1.5625 -95.34802,-4.2528 -152.16145,-9.3487 -38.31711,-3.4368 -50.61692,-4.9214 -66.52573,-8.0297 -4.89963,-0.9573 -12.62037,-2.3861 -17.15719,-3.175 -16.20784,-2.8185 -23.96587,-5.0618 -33.78224,-9.7686 -10.05453,-4.821 -15.80676,-9.2089 -24.3767,-18.5951 -2.48931,-2.7264 -4.6713,-4.9571 -4.84887,-4.9571 -0.37087,0 -22.36305,6.9506 -38.66698,12.2207 -16.02248,5.179 -29.84601,10.0456 -35.98764,12.6693 l -2.2271,0.9514 v -253.0168 -253.0168 h 193.25511 c 106.29031,0 193.25509,0.058 193.25509,0.1294 0,0.2602 -1.9833,5.5302 -2.8171,7.4858 -7.7871,18.2629 -21.335,35.2467 -39.56969,49.605 -12.21211,9.6159 -19.98554,13.9557 -36.06471,20.1341 -10.18504,3.9135 -19.19315,6.8549 -28.35219,9.2576 -5.2337,1.373 -6.80229,1.9222 -7.63016,2.6714 -0.67654,0.6123 -0.6482,0.8487 0.16564,1.382 2.18357,1.4307 19.29071,3.0738 37.39724,3.5918 22.82037,0.6529 86.17607,0.9226 180.89827,0.7699 110.0547,-0.1773 122.7239,-0.3243 153.5983,-1.7826 20.1941,-0.9538 24.5546,-1.6578 23.8584,-3.8514 -0.554,-1.7454 -5.886,-3.4106 -21.7031,-6.7777 -15.7642,-3.3558 -18.8903,-4.3104 -24.4263,-7.4592 -2.2918,-1.3035 -6.8825,-3.7693 -10.2016,-5.4797 -3.3191,-1.7103 -7.4572,-3.9484 -9.1958,-4.9735 -24.5402,-14.4695 -43.7199,-37.0067 -53.4131,-62.7632 l -0.73,-1.9397 h 273.1306 273.1306 v 277.454 277.454 h -67.2164 -67.2163 z m -464.1222,-11.458 11.8231,-0.175 0.1707,-6.3608 c 0.094,-3.4984 0.3659,-26.6632 0.6044,-51.4775 0.2385,-24.8142 0.5168,-50.2335 0.6183,-56.4873 l 0.1847,-11.3704 18.8547,-0.35 c 49.4461,-0.918 77.4668,-1.8162 113.6863,-3.6442 138.0059,-6.9651 177.2732,-11.7442 202.5945,-24.657 4.0466,-2.0636 10.2483,-6.0372 15.4461,-9.8968 l 2.8018,-2.0805 v -18.03 c 0,-21.1242 -0.2669,-25.5334 -1.5587,-26.0291 -0.7149,-0.2744 -2.6166,0.6987 -4.0144,2.0541 -0.8057,0.7813 -2.3701,2.0645 -3.4765,2.8516 -5.3169,3.7827 -16.6115,9.6315 -22.0063,11.3957 -9.5154,3.1117 -34.3685,7.2005 -59.4626,9.7827 -21.826,2.2458 -87.6691,6.7903 -127.1604,8.7765 -42.8063,2.153 -68.5329,2.8542 -129.5314,3.5303 l -6.2505,0.069 2e-4,-61.9689 c 2e-4,-51.4018 0.066,-61.994 0.3837,-62.1161 0.2109,-0.081 3.6701,-0.2405 7.6871,-0.3547 8.3601,-0.2375 10.0364,-0.044 11.6117,1.3388 l 0.9687,0.8506 0.1243,46.9004 c 0.088,33.2093 0.221,47.6007 0.4557,49.2993 0.3209,2.3228 0.6898,3.4447 1.2541,3.8134 0.1494,0.098 -0.064,0.2618 -0.4741,0.3647 -0.4101,0.103 -0.7457,0.3787 -0.7457,0.6128 0,0.3237 0.3742,0.4255 1.5636,0.4255 1.6513,0 2.1608,-0.3269 1.587,-1.0183 -0.2831,-0.3411 -0.2477,-0.4185 0.1908,-0.4186 0.8624,-10e-5 12.6863,-4.0612 18.7094,-6.4262 3.04,-1.1936 7.3721,-3.0703 9.6269,-4.1705 2.2548,-1.1001 6.9446,-3.1167 10.4217,-4.4813 15.0631,-5.9112 20.2606,-8.0935 48.1342,-20.2098 58.2373,-25.3151 59.7824,-26.0011 92.6762,-41.1473 10.9057,-5.0215 20.7983,-9.519 21.9837,-9.9943 5.9729,-2.3953 45.4623,-21.09 55.3297,-26.1938 5.9641,-3.0846 10.1907,-5.6648 10.1907,-6.2208 0,-0.2566 -0.2911,-0.4137 -0.7664,-0.4137 -1.2778,0 -0.6361,-0.1992 1.3357,-0.4148 l 1.8625,-0.2035 -0.7849,0.6174 c -0.8142,0.6404 -1.0517,1.4405 -0.4256,1.434 0.1975,0 1.1997,-0.2671 2.2271,-0.5891 2.7518,-0.8625 8.7602,-2.345 16.2287,-4.0043 10.6491,-2.3659 18.9191,-4.776 22.4223,-6.5345 3.7304,-1.8725 10.2958,-6.7294 14.0301,-10.3791 4.2495,-4.1533 4.0553,-5.0974 -1.3069,-6.3538 -6.6068,-1.5479 -16.7852,-2.3966 -56.8342,-4.739 l -21.1216,-1.2353 -4.3105,3.2248 c -8.121,6.0757 -10.9686,7.7935 -13.6071,8.2087 -8.1467,1.2819 -50.4434,2.9686 -125.7665,5.0154 -107.5205,2.9216 -332.67347,2.0622 -415.10334,-1.5845 -22.38723,-0.9904 -38.44162,-3.1075 -49.1534,-6.4817 -6.25078,-1.969 -8.32778,-3.2881 -11.68543,-7.4212 l -0.91241,-1.1231 -12.7325,0.927 c -33.68473,2.4525 -49.47823,3.7975 -52.33388,4.4568 -4.29107,0.9906 -4.08132,3.705 0.57385,7.4263 3.25686,2.6035 9.62128,6.6847 13.3995,8.5926 5.89039,2.9744 19.50616,7.4244 28.93276,9.4561 4.91519,1.0593 8.43467,2.3162 12.47681,4.4555 2.95033,1.5616 3.76795,1.8218 3.95553,1.2591 0.0551,-0.1654 1.45606,0.4389 3.11316,1.343 10.1861,5.5576 45.13117,21.9533 80.45863,37.75 7.34944,3.2863 22.54404,10.0801 33.76576,15.0973 26.0203,11.6336 48.46977,21.2628 89.08416,38.2106 18.541,7.7369 22.9951,9.6321 29.8863,12.7165 9.5537,4.2762 23.6786,9.8817 25.3291,10.0521 1.4818,0.1529 1.4975,0.1643 0.8947,0.6525 l -0.6136,0.4968 0.6509,0.3483 c 0.8162,0.4369 2.4956,0.1753 3.7422,-0.5828 1.3102,-0.7968 1.0014,-1.2758 -0.7917,-1.228 l -1.4771,0.04 0.7142,-0.8488 c 0.8531,-1.0139 1.4568,-3.0026 1.8598,-6.1269 0.4764,-3.6935 0.8202,-24.5134 1.0178,-61.6384 0.1013,-19.0442 0.2084,-34.6499 0.2379,-34.6795 0.03,-0.03 1.2806,0.1222 2.78,0.3371 1.4994,0.2149 5.3126,0.5317 8.4736,0.7038 5.5614,0.3029 8.6104,0.6264 8.9315,0.9475 0.4862,0.4862 0.7413,15.5254 0.8858,52.2301 0.1504,38.1892 -0.1163,66.3247 -0.6598,69.6026 -0.1666,1.0053 -0.2515,1.0783 -1.506,1.2932 -2.0319,0.3482 -42.9455,0.2293 -55.9293,-0.1625 -33.53373,-1.012 -95.80893,-4.2137 -140.66675,-7.2321 -89.22761,-6.0039 -110.87141,-8.729 -128.16622,-16.1371 -4.17643,-1.7889 -8.24766,-4.0559 -14.79946,-8.2408 -5.11339,-3.266 -11.24454,-6.6507 -12.04746,-6.6507 -0.22788,0 -0.4863,0.2267 -0.57426,0.5039 -0.51768,1.6311 -0.77977,7.3128 -0.93119,20.1866 -0.18427,15.6675 0.0558,21.3434 0.97778,23.1149 0.36449,0.7004 1.70915,1.7829 4.81619,3.8773 2.37079,1.5981 5.53902,3.8056 7.04052,4.9056 17.70071,12.9672 52.39731,18.2797 161.35724,24.7058 32.60374,1.9229 56.87988,3.0131 112.21731,5.0393 31.4769,1.1525 41.8695,1.6155 62.4307,2.781 l 5.9629,0.338 v 3.7556 c 0,2.0656 0.1292,22.8943 0.2837,46.2861 0.3079,46.6193 0.7336,73.7933 1.1688,74.6064 0.1533,0.2865 0.8261,0.6714 1.4951,0.8555 2.7952,0.7689 18.5316,0.8783 52.9837,0.3682 z m 68.9275,0.022 c 8.5348,-0.048 17.4329,-0.097 19.7735,-0.1089 2.4657,-0.013 4.1879,-0.1315 4.0946,-0.2824 -0.2228,-0.3606 3.2926,-0.5478 16.6508,-0.8869 6.3221,-0.1604 12.4323,-0.3612 13.5781,-0.4462 1.7523,-0.13 2.0835,-0.084 2.0835,0.2884 0,0.3499 0.3624,0.4431 1.7242,0.4431 1.341,0 1.7242,-0.096 1.7242,-0.4311 0,-0.237 0.1616,-0.4344 0.3592,-0.4385 0.1976,0 5.0146,-0.1952 10.7045,-0.4246 5.6899,-0.2294 13.729,-0.42 17.8647,-0.4235 4.9966,0 7.5532,-0.1079 7.6202,-0.3086 0.1976,-0.593 17.9575,-1.2053 20.9511,-0.7223 1.0432,0.1683 1.4181,0.1139 1.7922,-0.2602 0.5982,-0.5982 10.92,-1.33 19.7343,-1.3992 4.5402,-0.036 5.8746,-0.1286 5.8192,-0.4054 -0.042,-0.2077 0.2197,-0.3592 0.6192,-0.3592 0.8282,0 11.0093,-0.7966 12.7415,-0.997 0.8705,-0.1006 1.1994,-0.04 1.1495,0.2124 -0.048,0.2432 0.5022,0.3805 1.7635,0.44 1.695,0.08 1.8224,0.044 1.6873,-0.4724 -0.1324,-0.5061 0.061,-0.5773 2.046,-0.7533 18.6363,-1.6525 62.6789,-7.3017 66.2509,-8.4977 0.6425,-0.2151 0.9492,-0.1797 1.3159,0.1522 1.0084,0.9126 2.3006,0.1706 2.3006,-1.3211 0,-1.0215 -0.6761,-1.3774 -1.3896,-0.7316 -0.4659,0.4217 -0.6651,0.3936 -2.5038,-0.3526 -1.0987,-0.4459 -4.5839,-1.4869 -7.745,-2.3133 -8.589,-2.2456 -19.7028,-5.446 -41.0936,-11.8335 -25.8806,-7.7282 -28.3535,-8.5249 -70.8363,-22.8199 -20.3097,-6.834 -41.2909,-13.8601 -46.6248,-15.6136 -5.3339,-1.7535 -12.3169,-4.213 -15.5179,-5.4657 -7.5319,-2.9476 -13.6571,-5.1563 -32.2577,-11.6321 -8.3768,-2.9165 -21.373,-7.5004 -28.8805,-10.1866 -11.9354,-4.2705 -17.7466,-6.229 -20.0334,-6.7516 -0.3498,-0.08 -0.7628,0.01 -0.9177,0.1941 -1.1816,1.4237 -1.5594,17.9231 -1.3727,59.9485 0.1731,38.9858 0.3841,44.0774 1.8519,44.6924 1.0578,0.4433 5.912,0.6569 11.5635,0.5091 3.24,-0.085 12.8741,-0.1934 21.4089,-0.2412 z m -146.2967,-1.5893 c 0.091,-0.091 0.2466,-21.1693 0.346,-46.841 0.2072,-53.5099 0.1049,-57.086 -1.6454,-57.5438 -1.47,-0.3844 -5.4016,0.6317 -13.2739,3.4307 -28.189,10.0226 -58.90441,20.4634 -112.84822,38.3593 -52.84148,17.5302 -75.50036,24.7066 -114.22886,36.1781 -16.82744,4.9844 -26.37992,7.9426 -27.5155,8.5211 -0.45402,0.2313 -0.79027,0.6408 -0.79027,0.9625 0,0.9756 2.30489,1.7414 8.19,2.7211 3.39779,0.5656 12.04577,1.5853 13.5063,1.5926 0.76725,0 1.01779,0.089 0.75345,0.2565 -0.21782,0.1379 -0.30717,0.3946 -0.19857,0.5703 0.26101,0.4223 2.82996,0.4119 3.25508,-0.013 0.52192,-0.5219 10.59889,0.271 11.21144,0.8821 0.38331,0.3825 1.29923,0.4582 5.64961,0.467 5.06025,0.01 11.30042,0.3829 10.58028,0.6317 -0.80249,0.2773 -0.26771,0.621 1.26384,0.8124 0.94054,0.1175 2.42084,0.062 3.52026,-0.1321 1.51377,-0.2671 2.94041,-0.2459 7.05872,0.1053 2.83883,0.242 5.39281,0.4401 5.67552,0.4401 0.28271,0 0.48169,0.1616 0.44218,0.3592 -0.0552,0.2758 1.06209,0.3612 4.81341,0.3678 5.02482,0.01 13.38016,0.4371 12.35684,0.6333 -2.28041,0.4372 -1.02453,0.8702 2.63944,0.91 1.4517,0.016 3.00349,-0.1119 3.44842,-0.2836 0.59853,-0.231 3.16378,-0.1753 9.86107,0.2142 4.97866,0.2895 8.76114,0.5684 8.40552,0.6196 -0.35562,0.051 -0.64658,0.1965 -0.64658,0.3227 0,0.3389 3.8249,0.5062 6.46579,0.2829 2.55031,-0.2157 20.15411,0.5943 19.65254,0.9043 -0.79091,0.4888 0.70614,0.6175 5.30903,0.4565 5.90114,-0.2064 17.02709,0.3619 16.93105,0.8648 -0.0956,0.5012 4.80229,0.7782 9.66692,0.5467 4.38676,-0.2087 23.31407,0.5747 23.58724,0.9763 0.079,0.1161 4.86371,0.3074 10.63265,0.4251 9.4356,0.1924 17.6839,0.5525 15.8052,0.6901 -0.5371,0.039 -0.617,0.1168 -0.3165,0.3071 0.4355,0.2757 50.1604,0.2781 50.436,0 z m -306.52496,-53.7365 c 1.24835,-0.1514 2.65016,-0.1448 3.50045,0.016 1.83401,0.3478 4.41722,0.067 4.21565,-0.4583 -0.0959,-0.2499 0.16792,-0.4286 0.77555,-0.5254 18.06854,-2.8784 56.70017,-12.8125 79.3901,-20.4152 3.4869,-1.1684 12.15105,-3.8685 19.25367,-6.0003 36.39417,-10.9233 89.66918,-28.3274 95.91927,-31.3353 1.89525,-0.912 2.57962,-1.1262 2.6889,-0.8414 0.41459,1.0804 2.50488,-0.4987 2.32498,-1.7564 -0.11538,-0.8066 -1.51049,-0.9751 -1.97077,-0.2381 -0.30901,0.4948 -0.48898,0.508 -2.528,0.1854 -1.20744,-0.191 -3.16519,-0.4686 -4.35059,-0.6169 l -2.15526,-0.2697 2.37079,-0.042 c 1.30393,-0.023 2.37079,-0.1607 2.37079,-0.3061 0,-0.4583 -3.68059,-0.6822 -7.29631,-0.4439 -5.00426,0.3299 -6.78272,0.2706 -25.75104,-0.8589 -9.40412,-0.56 -17.52631,-1.0183 -18.04931,-1.0186 -0.54152,-3e-4 -0.87669,-0.1206 -0.77851,-0.2794 0.31241,-0.5055 -1.27786,-0.6587 -5.2615,-0.5069 -2.68585,0.1023 -8.06631,-0.1125 -17.00433,-0.6791 -7.19139,-0.4558 -14.53005,-0.9143 -16.30814,-1.0189 -2.31927,-0.1364 -3.23289,-0.293 -3.23289,-0.5544 0,-0.5226 -3.46682,-0.8388 -5.74737,-0.5242 -2.08428,0.2876 -3.35426,0.216 -18.64962,-1.0512 -8.46052,-0.7009 -10.84187,-0.9852 -11.19294,-1.3363 -0.36362,-0.3636 -0.89955,-0.4136 -2.90299,-0.2707 -2.944,0.21 -12.41995,-0.6951 -13.08884,-1.2502 -0.29573,-0.2455 -0.87605,-0.3053 -1.77067,-0.1827 -1.63498,0.2241 -8.74295,-0.5658 -10.2539,-1.1394 -0.64739,-0.2458 -1.49042,-0.3465 -2.03896,-0.2436 -0.92899,0.1742 -3.27204,-0.1129 -12.08781,-1.4813 -23.92115,-3.7133 -35.17343,-7.6242 -46.24777,-16.0741 -5.15272,-3.9316 -8.57613,-5.8187 -9.07925,-5.0046 -1.00726,1.6298 -1.54058,19.7778 -1.8807,63.9973 -0.14205,18.4672 -0.10784,25.0729 0.12982,25.0729 0.17748,0 0.32268,0.2361 0.32268,0.5246 0,1.2545 2.66177,2.5719 3.4631,1.7141 0.32238,-0.3451 0.73821,-0.249 2.83966,0.6568 3.00335,1.2944 9.22372,3.3065 11.08511,3.5856 0.98232,0.1473 1.40398,0.3544 1.50451,0.7388 0.12392,0.4739 0.43589,0.5313 2.76495,0.5089 1.44391,-0.014 3.56227,-0.1388 4.70749,-0.2777 z m 708.59366,-1.3935 c 0.1502,-0.1454 3.9744,-0.307 8.4983,-0.3592 6.3104,-0.073 8.3033,-0.011 8.5605,0.2644 0.3823,0.4095 3.404,0.4856 4.0111,0.101 0.3197,-0.2025 0.2974,-0.3032 -0.1187,-0.5361 -0.4847,-0.2713 -0.4827,-0.2952 0.037,-0.4438 0.3023,-0.086 1.2609,-0.2436 2.1302,-0.3493 2.3866,-0.2902 8.1726,-1.4992 10.8914,-2.2757 2.1682,-0.6192 2.4587,-0.6446 2.8542,-0.2492 0.5171,0.5171 2.441,0.3525 3.7417,-0.3201 l 0.8101,-0.4189 0.1904,-13.164 c 0.1048,-7.2403 0.1871,-25.0612 0.183,-39.602 -0.01,-24.1308 -0.193,-33.4759 -0.7077,-35.5227 -0.1522,-0.6052 -0.073,-0.7815 0.4071,-0.907 0.7889,-0.2063 0.776,-1.2427 -0.021,-1.6691 -0.9102,-0.4871 -3.0696,-0.1561 -3.7977,0.5822 -0.5999,0.6082 -0.6015,0.6325 -0.069,1.0284 0.5265,0.3913 0.5215,0.4145 -0.144,0.6675 -0.3792,0.1442 -2.6291,1.5535 -4.9997,3.1317 -6.9954,4.6573 -10.5024,6.4954 -17.9768,9.4221 -6.2574,2.4502 -13.7175,4.5593 -22.8291,6.4543 -6.7017,1.3938 -17.4447,3.1326 -18.3113,2.9638 -0.43,-0.084 -1.3999,0.058 -2.1552,0.316 -1.3637,0.465 -10.1813,1.6072 -21.2019,2.7466 -12.2349,1.2648 -14.0015,1.3945 -14.8711,1.0913 -1.0065,-0.3508 -3.1868,-0.129 -4.3825,0.4458 -0.5123,0.2463 -2.7276,0.553 -5.46,0.756 -19.755,1.4671 -22.968,1.6583 -25.6203,1.525 -2.943,-0.1479 -5.1148,0.059 -4.865,0.4631 0.074,0.1205 -2.4759,0.3739 -5.6675,0.5631 -3.1917,0.1892 -10.0704,0.6159 -15.2861,0.9481 -5.4909,0.3499 -13.0262,0.6208 -17.8992,0.6437 -6.7876,0.032 -8.4631,0.1158 -8.6595,0.4337 -0.1898,0.307 -3.0601,0.5428 -12.993,1.0673 -14.6853,0.7756 -22.3633,1.4473 -22.9213,2.0053 -0.072,0.072 -0.4186,-0.1398 -0.7704,-0.4704 -0.7464,-0.7012 -1.9378,-0.6489 -2.0789,0.091 -0.134,0.7035 1.0224,2.2288 1.6898,2.2288 0.3053,0 0.5552,-0.167 0.5552,-0.371 0,-0.2422 0.7731,0 2.2271,0.7078 4.5249,2.1918 21.1411,7.9116 58.5512,20.155 72.1559,23.6149 105.9967,33.2507 123.3338,35.1182 1.362,0.1467 1.7408,0.2861 1.6216,0.5965 -0.1229,0.3203 0.1997,0.405 1.5421,0.405 0.9336,0 1.8203,-0.1189 1.9705,-0.2644 z m -290.7379,-42.8308 c 0.1279,-1.3087 -0.1638,-2.3089 -0.6733,-2.3089 -0.3226,0 -0.4255,0.3706 -0.4255,1.5326 0,0.8429 0.089,1.6215 0.1975,1.7302 0.4024,0.4024 0.811,-0.03 0.9013,-0.9539 z m 122.4209,-89.6746 c 3.9186,0.042 5.0826,-0.033 5.46,-0.3512 0.6451,-0.5433 32.7328,-2.4152 39.0331,-2.2771 3.2166,0.071 4.5326,0 5.0289,-0.2823 0.8405,-0.4723 14.9115,-1.4651 15.3138,-1.0804 0.4278,0.409 2.97,0.3156 3.2329,-0.1188 0.169,-0.2792 2.7029,-0.553 9.5693,-1.034 5.1367,-0.3599 12.1844,-0.8818 15.6616,-1.1599 3.4771,-0.2781 7.605,-0.443 9.173,-0.3664 2.2523,0.11 2.916,0.053 3.161,-0.27 0.2279,-0.3007 2.2153,-0.5818 7.4944,-1.0598 3.9513,-0.3579 9.5439,-0.9061 12.4279,-1.2183 3.7445,-0.4053 5.4029,-0.4824 5.8003,-0.2697 1.2692,0.6792 4.9275,0.1601 3.7967,-0.5388 -0.1758,-0.1086 2.4262,-0.5562 5.7824,-0.9945 23.7026,-3.0956 39.2026,-6.9713 50.2132,-12.5557 4.4458,-2.2549 12.9994,-7.6708 14.7963,-9.3686 2.5371,-2.3973 3.6587,-5.5755 4.1641,-11.7994 0.3886,-4.7857 0.3795,-55.8875 -0.012,-67.6103 -0.357,-10.6906 -0.501,-12.1672 -1.1991,-12.3015 -0.6939,-0.1334 -3.2661,2.3574 -6.1633,5.9686 -1.3267,1.6537 -4.0321,4.4786 -6.0119,6.2777 -1.9799,1.7991 -3.7312,3.5497 -3.8917,3.8902 -0.5022,1.0651 -7.1487,6.0888 -13.7518,10.3941 -14.9481,9.7465 -32.12,18.6554 -83.4804,43.3105 -24.8564,11.9321 -99.7684,45.5995 -113.5009,51.0103 -2.989,1.1777 -4.4638,2.1599 -4.4638,2.9728 0,1.0447 0.9655,1.1438 9.3395,0.9581 4.4254,-0.098 10.2874,-0.1546 13.0266,-0.1256 z m -335.45377,-0.5537 c 1.33767,-0.529 2.15526,-1.4449 2.15526,-2.4144 v -0.8621 l -0.69994,0.6575 -0.69994,0.6576 -0.80874,-0.5714 c -1.36494,-0.9644 -4.76595,-2.5808 -13.45294,-6.3938 -4.58352,-2.0119 -12.98904,-5.7599 -18.67893,-8.3291 -23.1743,-10.4638 -56.95836,-25.273 -63.99642,-28.0526 -8.67028,-3.4243 -38.71299,-17.5228 -59.71559,-28.0235 -17.8996,-8.9492 -28.46525,-15.1095 -39.8005,-23.2054 -6.65159,-4.7507 -16.06096,-12.6636 -17.14181,-14.4156 -0.26095,-0.423 -0.90753,-1.074 -1.43684,-1.4466 -0.52931,-0.3726 -3.16075,-2.8173 -5.84764,-5.4327 -5.93739,-5.7794 -9.47673,-8.5837 -10.07645,-7.984 -0.34393,0.3439 -0.68439,4.1428 -1.03708,11.5719 -0.24935,5.2524 -0.36796,17.7387 -0.36716,38.6511 10e-4,30.774 0.17461,37.379 1.00785,38.383 0.42954,0.5176 5.97986,4.6591 9.46705,7.0641 13.14534,9.0659 27.66462,14.6038 45.40417,17.3178 5.51973,0.8445 14.2916,1.9111 21.8371,2.6553 2.92239,0.2882 5.08843,0.5673 4.81342,0.6203 -0.27501,0.053 -0.50001,0.201 -0.50001,0.3291 0,0.5885 3.4182,0.8029 4.74699,0.2977 0.53153,-0.2021 2.11978,-0.1598 5.26317,0.14 5.61441,0.5356 21.49368,1.8737 22.23443,1.8737 0.30211,0 0.47172,0.1255 0.3769,0.2789 -0.30023,0.4858 1.26305,0.6683 4.26822,0.4982 1.75837,-0.1 5.81198,0.05 10.23867,0.3789 14.00305,1.0387 43.48027,2.8608 46.35508,2.8654 0.60611,0 1.02042,0.1217 0.92839,0.2706 -0.28641,0.4635 2.39999,0.6822 6.15118,0.5009 4.00798,-0.1938 19.26779,0.6981 22.43055,1.3109 1.30825,0.2535 5.13967,0.3581 12.78789,0.3491 9.64206,-0.012 10.65734,0.028 8.67562,0.341 -1.23442,0.1946 -2.39826,0.4264 -2.58632,0.5149 -0.68594,0.3231 6.86796,-0.066 7.70437,-0.3967 z M 850.0651,1299.6205 c 103.9344,-0.5612 191.5153,-2.0906 255.4704,-4.4611 32.0144,-1.1867 37.542,-1.7062 41.7092,-3.9202 1.9789,-1.0514 4.7872,-3.5038 5.0048,-4.3706 0.2525,-1.0064 -2.5856,-8.3959 -10.1628,-26.4604 l -3.9721,-9.4699 -4.2159,-1.0558 c -5.1219,-1.2828 -6.968,-2.0069 -8.5335,-3.3469 -1.6794,-1.4374 -2.3332,-2.5966 -3.8223,-6.7765 -1.4365,-4.0321 -2.4687,-6.0104 -3.4827,-6.6748 -1.8682,-1.2241 -23.4408,-3.8689 -31.5572,-3.8689 -3.5686,0 -4.4828,0.2848 -5.9686,1.8596 -0.5531,0.5864 -1.7798,1.4596 -2.7257,1.9405 -3.3435,1.6996 -12.9523,4.4997 -19.9188,5.8045 -7.7265,1.4471 -20.198,1.979 -64.428,2.7482 -110.7606,1.9261 -192.265,2.3774 -257.3382,1.425 -28.04534,-0.4105 -43.07381,-0.9287 -58.47947,-2.0165 -26.58035,-1.8769 -43.00433,-4.7071 -49.90033,-8.599 -0.85178,-0.4807 -2.35463,-1.0602 -3.33968,-1.2878 -6.31927,-1.4599 -20.48047,-1.2482 -34.76593,0.5199 -1.69875,0.2103 -3.13615,0.4365 -3.19423,0.5026 -0.0581,0.066 -1.6668,3.981 -3.57491,8.6997 -1.90812,4.7186 -3.50964,8.617 -3.55892,8.663 -0.0493,0.046 -2.09297,0.2285 -4.54153,0.4056 -7.38005,0.5336 -9.06929,1.3407 -10.96822,5.2404 -3.20824,6.5886 -10.58668,28.7974 -10.58668,31.8655 0,3.9145 7.11306,5.6131 30.60471,7.3083 26.23015,1.8928 69.05181,3.4557 134.91937,4.9243 4.8206,0.1075 22.73082,0.2836 39.80052,0.3914 17.0696,0.1077 33.1694,0.216 35.7773,0.2406 2.6079,0.025 27.6951,-0.079 55.7494,-0.2307 z m 49.2837,-63.2191 c 76.8487,-0.7647 133.5265,-1.8878 146.2704,-2.8985 7.5119,-0.5958 15.1064,-2.1128 22.1198,-4.4185 4.2001,-1.3807 4.535,-1.6125 4.2942,-2.9717 -0.6743,-3.8051 -7.2686,-17.931 -9.0836,-19.4582 -1.014,-0.8532 -2.2503,-0.918 -5.5884,-0.293 -18.2009,3.4082 -57.9928,4.0395 -239.5741,3.8009 -105.85643,-0.1391 -128.72298,-0.3104 -142.09201,-1.0647 -2.88963,-0.1631 -11.95924,-1.0699 -20.15467,-2.0152 -8.19543,-0.9453 -15.0965,-1.7187 -15.3357,-1.7187 -0.42291,0 -5.56431,11.1531 -6.78336,14.7149 -1.56219,4.5644 -0.85327,6.2246 3.33043,7.7995 14.69814,5.5327 39.55425,7.6342 100.52131,8.4987 23.0071,0.3263 130.1195,0.3425 162.0757,0.024 z"
       id="path74" />
    <rect
       style="fill:#0000ff;fill-opacity:0;stroke-width:5"
       id="rect13"
       width="220.69878"
       height="275.87347"
       x="27.587347"
       y="18.391565" />
    <rect
       style="fill:#0000ff;fill-opacity:0;stroke-width:5"
       id="rect15"
       width="64.370476"
       height="96.555717"
       x="103.45255"
       y="82.762039" />
    <ellipse
       style="fill:#ff0000;stroke-width:5"
       id="path849"
       cx="1369.6216"
       cy="381.20111"
       rx="387.97189"
       ry="382.0488" />
  </g>
</svg>
