<svg width="72" height="72" xmlns="http://www.w3.org/2000/svg">

 <g>
  <title>background</title>
  <rect fill="none" id="canvas_background" height="602" width="802" y="-1" x="-1"/>
 </g>
 <g>
  <title>Layer 1</title>
  <g id="svg_1" fill-rule="evenodd" fill="none">
   <ellipse stroke="null" ry="35.92314" rx="35.92141" id="svg_4" cy="36.05191" cx="35.92136" stroke-opacity="null" stroke-width="null" fill="#007bff"/>
   <path id="svg_5" fill="#FFF" d="m24.20784,45.35404c-0.2625,1.60938 -0.34375,2.41094 1.53125,2.37344c1.08906,-0.02344 2.43594,-0.36562 3.4625,-0.60625c5.825,-1.36562 8.65156,-0.92344 14.30625,0.30313c3.94219,0.85468 3.92656,-0.04375 3.1625,-3.58125l-0.50938,-3.50157c0.82813,-0.08281 5.92969,-2.70312 6.97188,-2.89062l-0.0125,1.39531c-0.28438,0.25625 -0.50938,0.25469 -0.52032,0.76875c-0.01093,0.4625 0.19844,0.55625 0.41563,0.76094c0.02031,0.60312 -0.11094,0.52187 -0.19062,0.98281c-0.19532,1.15313 -0.7125,7.53125 -0.60157,7.75781c0.25782,0.53438 1.87813,0.68594 2.18125,0.02657c0.23125,-0.49688 -0.42969,-7.06563 -0.69375,-8.23907c-0.19843,-0.87968 0.29844,-0.55937 0.3625,-1.1875c0.05313,-0.52031 -0.25156,-0.60937 -0.54843,-0.87031l0.00312,-1.60781c1.2875,-0.66094 5.28906,-2.2 6.03125,-2.68125c-0.70938,-0.44688 -4.79219,-2.10625 -5.93906,-2.61719c-2.03594,-0.90937 -3.98281,-1.74844 -6.01875,-2.61562c-1.3,-0.55469 -11.65782,-5.175 -12.03282,-5.18282c-0.27499,-0.00468 -10.78593,4.62344 -12.03906,5.17813c-1.99375,0.88125 -3.98437,1.75937 -6.02031,2.60781c-0.77812,0.32344 -5.59531,2.37188 -5.95,2.64531c1.54688,0.81719 13.16875,5.75938 13.39844,5.75938l-0.75,5.02187z"/>
  </g>
 </g>
</svg>