<svg width="72" height="72" xmlns="http://www.w3.org/2000/svg">
 <g>
  <title>background</title>
  <rect x="-1" y="-1" width="74" height="74" id="canvas_background" fill="none"/>
 </g>

 <g>
  <title>Layer 1</title>
  <g fill="none" fill-rule="evenodd" id="svg_1">
   <path stroke="null" d="m18.86519,49.14219c-0.39155,2.40056 -0.51274,3.59618 2.28402,3.54024c1.62445,-0.03496 3.63347,-0.54536 5.16469,-0.90429c8.68861,-2.03697 12.90473,-1.37741 21.33931,0.45215c5.8802,1.27485 5.85689,-0.06526 4.71721,-5.34182l-0.75979,-5.22297c1.23524,-0.12352 8.84477,-4.03199 10.39931,-4.31167l-0.01865,2.08125c-0.42418,0.38222 -0.75979,0.3799 -0.77611,1.14667c-0.0163,0.68987 0.29599,0.82971 0.61996,1.13502c0.03029,0.89962 -0.16548,0.77843 -0.28433,1.46597c-0.29134,1.72002 -1.06277,11.23367 -0.89731,11.57161c0.38457,0.79709 2.80143,1.02315 3.25357,0.03963c0.34493,-0.74115 -0.64093,-10.53915 -1.0348,-12.28946c-0.29598,-1.31214 0.44516,-0.83436 0.54071,-1.77128c0.07925,-0.7761 -0.37523,-0.90894 -0.81804,-1.29816l0.00465,-2.39822c1.92044,-0.98586 7.8892,-3.28154 8.99626,-3.99937c-1.05812,-0.66657 -7.14807,-3.1417 -8.85875,-3.90382c-3.03682,-1.35642 -5.94079,-2.60799 -8.97761,-3.90148c-1.93909,-0.82738 -17.38889,-7.71907 -17.94824,-7.73073c-0.41018,-0.00698 -16.08837,6.89636 -17.95755,7.72374c-2.97389,1.31448 -5.94312,2.62429 -8.97994,3.88983c-1.16065,0.48245 -8.34601,3.53791 -8.87506,3.94576c2.30734,1.21893 19.64261,8.59073 19.98521,8.59073l-1.11871,7.49066z" fill="#000000" id="svg_5"/>
  </g>
 </g>
</svg>